# Blender v2.93.0 OBJ File: 'cenario.blend'
# www.blender.org
mtllib cenario.mtl
o Plane
v -1.000000 0.000000 2.000000
v 1.000000 0.000000 2.000000
v -1.000000 0.000000 -2.000000
v 1.000000 0.000000 -2.000000
v -1.000000 2.000000 2.000000
v -1.000000 2.000000 -2.000000
vt 0.000000 0.500000
vt 1.000000 0.000000
vt 1.000000 0.500000
vt 1.000000 0.500000
vt 0.000000 1.000000
vt 0.000000 0.500000
vt 0.000000 0.000000
vt 1.000000 1.000000
vn 0.0000 1.0000 0.0000
vn 1.0000 0.0000 0.0000
usemtl Material.001
s off
f 2/1/1 3/2/1 1/3/1
f 3/4/2 5/5/2 1/6/2
f 2/1/1 4/7/1 3/2/1
f 3/4/2 6/8/2 5/5/2
